<svg xmlns="http://www.w3.org/2000/svg" width="220" height="220" viewBox="0 0 220 220" fill="none">
  <path fill-rule="evenodd" clip-rule="evenodd" d="M109.667 201.667C66.4545 201.667 44.8485 201.667 31.4243 188.242C18 174.818 18 153.212 18 110C18 66.7879 18 45.1819 31.4243 31.7577C44.8485 18.3333 66.4545 18.3333 109.667 18.3333C152.878 18.3333 174.485 18.3333 187.909 31.7577C201.333 45.1819 201.333 66.7879 201.333 110C201.333 153.212 201.333 174.818 187.909 188.242C174.485 201.667 152.878 201.667 109.667 201.667ZM109.667 75.625C113.463 75.625 116.542 78.7031 116.542 82.5V103.125H137.167C140.963 103.125 144.042 106.203 144.042 110C144.042 113.797 140.963 116.875 137.167 116.875H116.542V137.5C116.542 141.297 113.463 144.375 109.667 144.375C105.87 144.375 102.792 141.297 102.792 137.5V116.875H82.1667C78.3697 116.875 75.2917 113.797 75.2917 110C75.2917 106.203 78.3697 103.125 82.1667 103.125H102.792V82.5C102.792 78.7031 105.87 75.625 109.667 75.625Z" fill="#FE7D05"/>
</svg>